<svg width="64" height="64" viewBox="0 0 64 64" fill="none" xmlns="http://www.w3.org/2000/svg">
<circle cx="32" cy="32" r="32" fill="#800080" fill-opacity="0.08"/>
<g clip-path="url(#clip0_1237_938)">
<path d="M40.8912 11.2598H23.1134C21.5418 11.2598 20.0345 11.8841 18.9232 12.9954C17.8118 14.1068 17.1875 15.614 17.1875 17.1857V46.8153C17.1875 48.387 17.8118 49.8943 18.9232 51.0056C20.0345 52.1169 21.5418 52.7412 23.1134 52.7412H29.8008C29.0461 51.8273 28.3934 50.8338 27.8542 49.7783H23.1134C22.3276 49.7783 21.574 49.4661 21.0183 48.9104C20.4626 48.3548 20.1505 47.6011 20.1505 46.8153V46.8064H26.6868C25.8961 44.0154 25.8647 41.064 26.5959 38.2568C27.3271 35.4496 28.7944 32.8885 30.8462 30.8379C32.898 28.7873 35.46 27.3216 38.2676 26.592C41.0752 25.8625 44.0266 25.8956 46.8171 26.6879V17.1857C46.8171 15.614 46.1928 14.1068 45.0815 12.9954C43.9701 11.8841 42.4629 11.2598 40.8912 11.2598ZM23.1134 18.6672H40.8912C41.2841 18.6672 41.6609 18.8233 41.9388 19.1011C42.2166 19.3789 42.3727 19.7557 42.3727 20.1487V23.1116C42.3727 23.5045 42.2166 23.8814 41.9388 24.1592C41.6609 24.437 41.2841 24.5931 40.8912 24.5931H23.1134C22.7205 24.5931 22.3437 24.437 22.0659 24.1592C21.788 23.8814 21.6319 23.5045 21.6319 23.1116V20.1487C21.6319 19.7557 21.788 19.3789 22.0659 19.1011C22.3437 18.8233 22.7205 18.6672 23.1134 18.6672ZM55.706 42.3709C55.706 45.9071 54.3013 49.2985 51.8008 51.799C49.3003 54.2994 45.9089 55.7042 42.3727 55.7042C38.8365 55.7042 35.4451 54.2994 32.9446 51.799C30.4441 49.2985 29.0394 45.9071 29.0394 42.3709C29.0394 38.8347 30.4441 35.4433 32.9446 32.9428C35.4451 30.4423 38.8365 29.0375 42.3727 29.0375C45.9089 29.0375 49.3003 30.4423 51.8008 32.9428C54.3013 35.4433 55.706 38.8347 55.706 42.3709ZM37.9282 46.8005C37.9282 47.0626 37.9977 47.3201 38.1296 47.5466C38.2616 47.773 38.4512 47.9605 38.6793 48.0897C38.9073 48.219 39.1656 48.2854 39.4277 48.2822C39.6898 48.279 39.9464 48.2063 40.1712 48.0716L47.5786 43.6361C47.7983 43.5045 47.9802 43.3183 48.1065 43.0955C48.2328 42.8727 48.2991 42.621 48.2991 42.365C48.2991 42.1089 48.2328 41.8572 48.1065 41.6344C47.9802 41.4116 47.7983 41.2254 47.5786 41.0938L40.1712 36.6583C39.9466 36.5237 39.6903 36.451 39.4284 36.4477C39.1666 36.4444 38.9085 36.5106 38.6806 36.6395C38.4526 36.7683 38.2629 36.9553 38.1307 37.1814C37.9986 37.4075 37.9287 37.6646 37.9282 37.9264V46.8005Z" fill="#6F1B8A"/>
</g>
<defs>
<clipPath id="clip0_1237_938">
<rect width="47.4074" height="47.4074" fill="white" transform="translate(8.29688 8.29688)"/>
</clipPath>
</defs>
</svg>
