<svg width="64" height="64" viewBox="0 0 64 64" fill="none" xmlns="http://www.w3.org/2000/svg">
<circle cx="32" cy="32" r="32" fill="#800080" fill-opacity="0.08"/>
<g clip-path="url(#clip0_1237_922)">
<path d="M21.1126 44.2715L21.5279 44.6868L21.9469 44.2752L24.7617 41.5097L25.1882 41.0907L24.7654 40.668L22 37.9026L13.6049 29.5075L13.1896 29.0922L12.7706 29.5038L9.95579 32.2692L9.52932 32.6882L9.95207 33.111L21.1126 44.2715ZM32.2731 44.2715L32.6921 44.6905L33.1111 44.2715L54.0494 23.3332L54.4647 22.9179L54.0531 22.4989L51.2876 19.6841L50.8686 19.2576L50.4459 19.6803L32.6921 37.4342L24.716 29.4581L24.2933 29.0354L23.8743 29.4618L21.1089 32.2767L20.6972 32.6957L21.1126 33.111L32.2731 44.2715ZM32.2768 33.1147L32.6958 33.5263L33.1111 33.111L42.8889 23.3332L43.3116 22.9105L42.8852 22.4915L40.0703 19.726L39.6514 19.3144L39.236 19.7297L29.4582 29.5075L29.0355 29.9303L29.462 30.3492L32.2768 33.1147Z" fill="#6F1B8A" stroke="#6F1B8A" stroke-width="1.18519"/>
</g>
<defs>
<clipPath id="clip0_1237_922">
<rect width="47.4074" height="47.4074" fill="white" transform="translate(8.29688 8.29688)"/>
</clipPath>
</defs>
</svg>
