<svg width="64" height="64" viewBox="0 0 64 64" fill="none" xmlns="http://www.w3.org/2000/svg">
<circle cx="32" cy="32" r="32" fill="#800080" fill-opacity="0.08"/>
<path d="M24.1438 35.7671L24.1302 35.779L24.1174 35.7917C23.0922 36.8081 21.7316 37.3647 20.268 37.3647C17.2613 37.3647 14.8161 34.9595 14.8161 32.0005C14.8161 29.0416 17.2613 26.6364 20.268 26.6364C21.7265 26.6364 23.0885 27.1893 24.1885 28.2798L24.2016 28.2927L24.2153 28.3048L28.4357 32.001L24.1438 35.7671ZM39.8588 28.2339L39.8724 28.222L39.8852 28.2093C40.9104 27.193 42.271 26.6364 43.7346 26.6364C46.7413 26.6364 49.1865 29.0416 49.1865 32.0005C49.1865 34.9595 46.7413 37.3647 43.7346 37.3647C42.293 37.3647 40.9135 36.8111 39.8141 35.7212L39.8011 35.7083L39.7873 35.6963L35.5669 32.0001L39.8588 28.2339ZM53.9272 32.0005C53.9272 26.377 49.3505 21.9265 43.7346 21.9265C41.0304 21.9265 38.4666 22.9663 36.628 24.7819L32.0009 28.8503L27.4632 24.8698C25.5393 22.9693 22.9766 21.9265 20.268 21.9265C14.6492 21.9265 10.0754 26.4504 10.0754 32.0005C10.0754 37.5507 14.6492 42.0746 20.268 42.0746C22.9722 42.0746 25.536 41.0348 27.3746 39.2191L32.0018 35.1508L36.5404 39.1322C38.4633 41.0137 41.0076 42.057 43.7346 42.057C49.3519 42.057 53.9272 37.5521 53.9272 32.0005Z" fill="#6F1B8A" stroke="#6F1B8A" stroke-width="1.18519"/>
</svg>
