<svg width="64" height="64" viewBox="0 0 64 64" fill="none" xmlns="http://www.w3.org/2000/svg">
<circle cx="32" cy="32" r="32" fill="#800080" fill-opacity="0.08"/>
<path d="M12.25 21.6301C12.25 19.722 13.7986 18.1733 15.7068 18.1733H42.3735C44.2816 18.1733 45.8302 19.722 45.8302 21.6301V38.4203C45.8302 39.3371 45.466 40.2163 44.8178 40.8646C44.1695 41.5128 43.2903 41.877 42.3735 41.877H15.7068C14.79 41.877 13.9107 41.5128 13.2625 40.8646C12.6142 40.2163 12.25 39.3371 12.25 38.4203V21.6301ZM18.1759 20.6425V22.6178C18.1759 23.0107 18.0198 23.3875 17.742 23.6653C17.4642 23.9432 17.0874 24.0993 16.6944 24.0993H14.7191V27.0622H16.6944C17.2781 27.0622 17.856 26.9473 18.3953 26.7239C18.9345 26.5006 19.4244 26.1732 19.8371 25.7605C20.2498 25.3478 20.5772 24.8578 20.8006 24.3186C21.0239 23.7794 21.1389 23.2014 21.1389 22.6178V20.6425H18.1759ZM29.0401 34.9635C30.2189 34.9635 31.3493 34.4952 32.1828 33.6617C33.0163 32.8282 33.4846 31.6978 33.4846 30.519C33.4846 29.3403 33.0163 28.2098 32.1828 27.3763C31.3493 26.5428 30.2189 26.0746 29.0401 26.0746C27.8614 26.0746 26.7309 26.5428 25.8974 27.3763C25.0639 28.2098 24.5957 29.3403 24.5957 30.519C24.5957 31.6978 25.0639 32.8282 25.8974 33.6617C26.7309 34.4952 27.8614 34.9635 29.0401 34.9635ZM14.7191 35.9511H16.6944C17.0874 35.9511 17.4642 36.1072 17.742 36.385C18.0198 36.6629 18.1759 37.0397 18.1759 37.4326V39.4079H21.1389V37.4326C21.1389 36.2539 20.6706 35.1234 19.8371 34.2899C19.0036 33.4564 17.8732 32.9882 16.6944 32.9882H14.7191V35.9511ZM39.9043 37.4326C39.9043 37.0397 40.0604 36.6629 40.3382 36.385C40.6161 36.1072 40.9929 35.9511 41.3858 35.9511H43.3611V32.9882H41.3858C40.2071 32.9882 39.0766 33.4564 38.2431 34.2899C37.4096 35.1234 36.9414 36.2539 36.9414 37.4326V39.4079H39.9043V37.4326ZM39.9043 22.6178V20.6425H36.9414V22.6178C36.9414 23.2014 37.0563 23.7794 37.2797 24.3186C37.503 24.8578 37.8304 25.3478 38.2431 25.7605C39.0766 26.594 40.2071 27.0622 41.3858 27.0622H43.3611V24.0993H41.3858C40.9929 24.0993 40.6161 23.9432 40.3382 23.6653C40.0604 23.3875 39.9043 23.0107 39.9043 22.6178ZM16.9927 44.84C17.513 45.7411 18.2613 46.4894 19.1625 47.0095C20.0637 47.5296 21.086 47.8033 22.1265 47.803H42.3735C43.6056 47.803 44.8257 47.5603 45.9641 47.0888C47.1024 46.6172 48.1368 45.9261 49.008 45.0548C49.8793 44.1836 50.5704 43.1492 51.042 42.0109C51.5135 40.8725 51.7562 39.6524 51.7562 38.4203V28.0499C51.7565 27.0094 51.4828 25.9871 50.9627 25.0859C50.4426 24.1847 49.6943 23.4363 48.7932 22.9161V38.4203C48.7932 40.1229 48.1168 41.7558 46.9129 42.9597C45.709 44.1636 44.0761 44.84 42.3735 44.84H16.9927Z" fill="#6F1B8A"/>
</svg>
