<svg width="64" height="64" viewBox="0 0 64 64" fill="none" xmlns="http://www.w3.org/2000/svg">
<circle cx="32" cy="32" r="32" fill="#800080" fill-opacity="0.08"/>
<path d="M17.1837 14.2227H46.8134C50.0815 14.2227 52.7393 16.8804 52.7393 20.1486V37.9264C52.7393 41.1945 50.0815 43.8523 46.8134 43.8523H27.9097C29.1892 42.7509 30.2166 41.3869 30.9222 39.8531C31.6277 38.3194 31.9948 36.6517 31.9986 34.9634C31.9948 33.2751 31.6277 31.6074 30.9222 30.0737C30.2166 28.5399 29.1892 27.1759 27.9097 26.0745H42.3689C42.7618 26.0745 43.1387 25.9184 43.4165 25.6406C43.6943 25.3628 43.8504 24.9859 43.8504 24.593C43.8504 24.2001 43.6943 23.8233 43.4165 23.5455C43.1387 23.2676 42.7618 23.1115 42.3689 23.1115H20.1467C18.4584 23.1153 16.7907 23.4824 15.257 24.1879C13.7232 24.8935 12.3592 25.9209 11.2578 27.2004V20.1486C11.2578 16.8804 13.9156 14.2227 17.1837 14.2227ZM36.443 34.9634H42.3689C42.7618 34.9634 43.1387 34.8073 43.4165 34.5295C43.6943 34.2517 43.8504 33.8748 43.8504 33.4819C43.8504 33.089 43.6943 32.7122 43.4165 32.4343C43.1387 32.1565 42.7618 32.0004 42.3689 32.0004H36.443C36.0501 32.0004 35.6733 32.1565 35.3954 32.4343C35.1176 32.7122 34.9615 33.089 34.9615 33.4819C34.9615 33.8748 35.1176 34.2517 35.3954 34.5295C35.6733 34.8073 36.0501 34.9634 36.443 34.9634ZM20.1467 43.8523C22.5042 43.8523 24.7651 42.9158 26.4321 41.2488C28.0991 39.5818 29.0356 37.3209 29.0356 34.9634C29.0356 32.6059 28.0991 30.345 26.4321 28.678C24.7651 27.011 22.5042 26.0745 20.1467 26.0745C17.7892 26.0745 15.5283 27.011 13.8613 28.678C12.1943 30.345 11.2578 32.6059 11.2578 34.9634C11.2578 37.3209 12.1943 39.5818 13.8613 41.2488C15.5283 42.9158 17.7892 43.8523 20.1467 43.8523ZM14.2208 51.2597V45.1649C16.0145 46.2312 18.06 46.7999 20.1467 46.8123C22.3156 46.8123 24.3215 46.1841 26.0726 45.1649V51.2567C26.0727 51.5249 26 51.7881 25.8623 52.0183C25.7245 52.2484 25.5269 52.4368 25.2904 52.5634C25.0543 52.6901 24.7882 52.7504 24.5206 52.7379C24.2529 52.7254 23.9936 52.6405 23.7704 52.4923L20.1467 50.0745L16.523 52.4893C16.3008 52.6409 16.0413 52.7286 15.7728 52.7432C15.5042 52.7577 15.2368 52.6984 14.9995 52.5716C14.7623 52.4449 14.5643 52.2557 14.427 52.0244C14.2897 51.7931 14.2184 51.5286 14.2208 51.2597Z" fill="#6F1B8A"/>
</svg>
