<svg width="64" height="64" viewBox="0 0 64 64" fill="none" xmlns="http://www.w3.org/2000/svg">
<circle cx="32" cy="32" r="32" fill="#800080" fill-opacity="0.08"/>
<path d="M28.898 38.4376L28.8879 38.4139C28.6835 38.3656 28.4803 38.3125 28.2784 38.2547L28.2631 38.2497C26.3317 37.6945 24.5481 36.7165 23.0415 35.3866C21.3846 33.9249 20.1104 32.0802 19.3301 30.0131C18.5497 27.946 18.2868 25.7194 18.5644 23.5275C18.8419 21.3355 19.6515 19.2447 20.9225 17.4374C22.1935 15.6301 23.8873 14.1612 25.8562 13.1586C27.8251 12.1561 30.0094 11.6505 32.2186 11.6858C34.4278 11.7211 36.5948 12.2964 38.5307 13.3613C40.4666 14.4263 42.1125 15.9486 43.3251 17.7957C44.5376 19.6427 45.2799 21.7583 45.4872 23.958C45.5533 24.6573 44.9793 25.2279 44.2767 25.2279C43.5757 25.2279 43.0153 24.6573 42.934 23.9597C42.7102 22.0351 41.9822 20.2037 40.8237 18.6507C39.6652 17.0976 38.1172 15.878 36.3362 15.115C34.5552 14.352 32.6043 14.0727 30.6808 14.3054C28.7572 14.5381 26.9292 15.2745 25.3815 16.4401C23.8338 17.6058 22.6213 19.1594 21.8665 20.9439C21.1117 22.7284 20.8414 24.6805 21.083 26.603C21.3245 28.5254 22.0693 30.35 23.2421 31.8924C24.4148 33.4347 25.974 34.64 27.762 35.3866L27.8297 35.4154C28.1683 35.5542 28.516 35.6767 28.8726 35.7828C29.1723 35.0587 29.7139 34.4609 30.405 34.0914C31.0961 33.7219 31.894 33.6036 32.6626 33.7566C33.4313 33.9096 34.123 34.3244 34.6199 34.9304C35.1169 35.5364 35.3882 36.296 35.3878 37.0797C35.3885 37.8579 35.1212 38.6127 34.6308 39.2169C34.1404 39.8212 33.4568 40.2381 32.695 40.3975C31.9333 40.5568 31.1399 40.449 30.4484 40.092C29.7568 39.7351 29.2094 39.1508 28.898 38.4376ZM27.2286 40.5913C24.2209 39.6558 21.5539 37.8579 19.5588 35.4205C18.3223 35.5653 17.1821 36.1592 16.3546 37.0893C15.5272 38.0194 15.0702 39.221 15.0703 40.466V41.6765C15.0703 47.9716 22.1984 52.3178 32.0015 52.3178C41.8047 52.3178 48.9327 47.7328 48.9327 41.6765V40.466C48.9327 39.1188 48.3976 37.8269 47.445 36.8743C46.4925 35.9217 45.2005 35.3866 43.8534 35.3866H37.682C38.0813 36.7242 37.9957 38.1599 37.4401 39.4405C36.8845 40.7212 35.8946 41.7646 34.6449 42.3868C33.3953 43.0089 31.9661 43.17 30.6093 42.8415C29.2526 42.513 28.0553 41.7161 27.2286 40.5913ZM40.4671 25.2279C40.4671 22.6679 39.3327 20.3737 37.5363 18.8211C36.635 18.0435 35.5798 17.4648 34.4397 17.1227C33.2995 16.7806 32.1 16.6828 30.9195 16.8357C29.739 16.9885 28.604 17.3886 27.5886 18.0099C26.5732 18.6311 25.7002 19.4595 25.0266 20.441C24.3531 21.4225 23.8941 22.535 23.6796 23.7058C23.4651 24.8767 23.5 26.0797 23.7819 27.2362C24.0638 28.3927 24.5865 29.4767 25.3158 30.4176C26.0451 31.3584 26.9645 32.1348 28.0142 32.6962C29.1051 31.7039 30.5268 31.1539 32.0015 31.1538C33.4768 31.1535 34.8992 31.7035 35.9905 32.6962C37.3432 31.9736 38.4742 30.8971 39.2626 29.5817C40.0511 28.2663 40.4674 26.7615 40.4671 25.2279Z" fill="#6F1B8A"/>
</svg>
