<svg xmlns="http://www.w3.org/2000/svg" width="52" height="52" viewBox="0 0 52 52" fill="none">
  <path d="M31.1749 0.563642L33.084 0.987884L34.6324 1.5394L35.8839 2.17576L36.8385 2.85455L37.5597 3.57576L38.09 4.29698L38.4294 4.99697L38.6415 5.63334L38.7264 6.18485L38.7688 6.6091L38.7476 6.88485V18.2121L38.6415 19.5485L38.3658 20.7152L37.9203 21.6909L37.3688 22.497L36.7324 23.1546L36.0324 23.6849L35.29 24.0879L34.5476 24.3849L33.8476 24.597L33.2112 24.7455L32.6597 24.8303L32.2143 24.8727H19.5506L18.087 24.9788L16.8355 25.2758L15.7749 25.7424L14.9052 26.3152L14.2052 26.9939L13.6324 27.7364L13.2082 28.5L12.89 29.2849L12.6779 30.0273L12.5294 30.7061L12.4446 31.2788L12.4021 31.7242V38.2152H7.67183L7.22637 38.1515L6.63243 38.003L5.95365 37.7485L5.21122 37.3667L4.44759 36.8152L3.68395 36.0515L2.94152 35.0758L2.26274 33.8242L1.6688 32.2758L1.22334 30.4091L0.926373 28.1818L0.820312 25.5727L0.947585 22.9849L1.28698 20.7788L1.79607 18.9333L2.47486 17.4273L3.23849 16.2182L4.08698 15.2849L4.97789 14.5849L5.8688 14.0758L6.71728 13.7364L7.48092 13.5242L8.15971 13.4182L8.6688 13.397H9.00819L9.13546 13.4182H26.4446V11.6576H14.0567L14.0355 5.82425L13.993 5.0394L14.0991 4.31819L14.3324 3.66061L14.693 3.06667L15.2233 2.51516L15.8809 2.02728L16.687 1.60304L17.6203 1.22122L18.7021 0.903036L19.9324 0.64849L21.29 0.436369L22.7961 0.309096L24.4294 0.224248L26.2112 0.181824L28.9052 0.287884L31.1749 0.563642ZM17.8112 4.76364L17.3233 5.46364L17.1536 6.33334L17.3233 7.20304L17.8112 7.92425L18.5112 8.39091L19.3809 8.58182L20.2506 8.39091L20.9506 7.92425L21.4385 7.20304L21.6082 6.33334L21.4385 5.46364L20.9506 4.76364L20.2506 4.29698L19.3809 4.10607L18.5112 4.29698L17.8112 4.76364ZM45.5779 13.1424L46.1718 13.2697L46.8506 13.5242L47.593 13.9061L48.3567 14.4788L49.1203 15.2212L49.8627 16.2182L50.5415 17.4697L51.1355 19.0182L51.5809 20.8849L51.8779 23.0909L51.9839 25.7L51.8567 28.3091L51.5173 30.5152L51.0082 32.3394L50.3294 33.8455L49.5658 35.0546L48.7173 36.0091L47.8264 36.7091L46.9355 37.2182L46.087 37.5576L45.3233 37.7485L44.6446 37.8545L44.1355 37.897L43.7961 37.8758H26.3597V39.6152H38.7476L38.7688 45.4697L38.8112 46.2333L38.7052 46.9545L38.4718 47.6121L38.1112 48.2273L37.5809 48.7576L36.9233 49.2667L36.1173 49.6909L35.1839 50.0515L34.1021 50.3697L32.8718 50.6455L31.5143 50.8364L30.0082 50.9849L28.3749 51.0697L26.593 51.0909L23.8991 51.0061L21.6294 50.7091L19.7203 50.2849L18.1718 49.7546L16.9203 49.1182L15.9658 48.4182L15.2446 47.697L14.7143 46.9758L14.3749 46.2758L14.1627 45.6394L14.0779 45.1091L14.0355 44.6848L14.0567 44.4091V33.0818L14.1627 31.7242L14.4385 30.5788L14.8839 29.603L15.4355 28.797L16.0718 28.1182L16.7718 27.6091L17.5142 27.1849L18.2567 26.8879L18.9567 26.6758L19.593 26.5485L20.1446 26.4636L20.59 26.4212L20.8658 26.4H33.2536L34.7173 26.2939L35.9688 25.997L37.0294 25.5515L37.8991 24.9576L38.5991 24.2788L39.1718 23.5364L39.5961 22.7727L39.9143 22.0091L40.1264 21.2667L40.2749 20.5879L40.3597 19.9939L40.4021 19.5485V13.0576H44.8355L45.1324 13.0788L45.5779 13.1424ZM31.8536 43.3697L31.3658 44.0697L31.1961 44.9394L31.3658 45.8091L31.8536 46.5091L32.5536 46.997L33.4233 47.1667L34.293 46.997L34.993 46.5091L35.4809 45.8091L35.6506 44.9394L35.4809 44.0697L34.993 43.3697L34.293 42.8818L33.4233 42.7121L32.5536 42.8818L31.8536 43.3697Z" fill="white"/>
</svg>