<svg xmlns="http://www.w3.org/2000/svg" width="40" height="54" viewBox="0 0 40 54" fill="none">
  <path d="M33.625 47.4999C34.3396 47.28 34.7472 47.057 34.9705 46.8703C35.1846 46.6914 35.21 46.5645 35.2124 46.5068C35.2156 46.4324 35.1844 46.3497 35.1267 46.267C35.0997 46.2283 35.0719 46.197 35.0515 46.1761L33.625 47.4999ZM33.625 47.4999C30.8623 48.3394 25.0421 48.8991 19.2596 48.9726C16.3766 49.0093 13.5205 48.9249 11.0812 48.6973C8.62751 48.4683 6.64218 48.0982 5.47041 47.5856L5.4693 47.5851C5.34666 47.5318 5.27609 47.4866 5.23751 47.4562C5.25934 47.4302 5.29139 47.3982 5.33634 47.361C5.43367 47.2803 5.57069 47.192 5.74279 47.1002C6.44101 46.7279 7.49964 46.4099 8.00368 46.302L8.00421 46.3018C8.52919 46.1887 8.94033 46.1424 9.21599 46.124C9.35384 46.1149 9.45783 46.1127 9.52527 46.1127C9.55898 46.1127 9.58355 46.1132 9.59865 46.1137L9.61413 46.1143L9.61513 46.1143L9.61532 46.1144L9.6155 46.1144L9.61581 46.1144L9.61625 46.1144L9.61646 46.1144L11.1082 46.2067L9.88754 45.342C9.53783 45.0943 9.05039 45.0011 8.55304 44.9819C8.04134 44.9622 7.45207 45.0187 6.84338 45.1278C5.6266 45.3457 4.27682 45.7833 3.21774 46.3089C2.68936 46.5711 2.21514 46.8641 1.8638 47.1755C1.52813 47.4731 1.22719 47.856 1.2116 48.3045C1.19434 48.8009 1.52289 49.1759 1.98712 49.437C2.45109 49.698 3.13903 49.9027 4.07045 50.0541C14.0798 51.6903 23.2116 51.325 29.2067 50.2504C32.1889 49.7158 34.4487 48.9967 35.646 48.2272C35.9491 48.0324 36.2042 47.8219 36.3862 47.5932C36.5691 47.3634 36.6962 47.0914 36.6898 46.7883C36.6767 46.1693 36.1388 45.7392 35.477 45.439L35.0318 46.1525L33.625 47.4999ZM8.19987 52.0751C8.24035 52.0817 8.30218 52.0856 8.37227 52.0682C8.43372 52.0479 8.55607 51.9701 8.61043 51.9103C8.62066 51.8937 8.63084 51.873 8.64043 51.8505C8.95771 51.9895 9.51425 52.186 10.4405 52.3839C9.64258 52.2936 8.89225 52.1901 8.19987 52.0751ZM8.19987 52.0751C8.17552 52.0711 8.15889 52.0662 8.15285 52.0644L8.15147 52.064C8.10461 52.0504 8.07007 52.031 8.06645 52.029L8.06617 52.0289C8.05627 52.0234 8.04891 52.0189 8.04641 52.0173L8.04018 52.0134L8.04754 52.0183C8.06111 52.0274 8.08174 52.0409 8.10986 52.0579C8.11151 52.0589 8.11319 52.0599 8.11488 52.061L8.19987 52.0751ZM8.6835 51.7214C8.68995 51.6955 8.69421 51.6722 8.6954 51.6551H8.27002L8.6835 51.7214ZM8.6835 51.7214C8.54335 51.6998 8.40537 51.6777 8.26966 51.6551M8.6835 51.7214L8.26966 51.6551M8.26966 51.6551C8.26966 51.6551 8.26966 51.6551 8.26966 51.6551L8.26966 51.6551ZM35.0286 46.1538L35.0293 46.1544L35.0286 46.1538ZM35.0286 46.1538L35.0275 46.1529M35.0286 46.1538L35.0275 46.1529M35.0275 46.1529L35.027 46.1525M35.0275 46.1529L35.027 46.1525M35.027 46.1525C35.0275 46.1529 35.0284 46.1537 35.0298 46.1548L35.027 46.1525ZM28.5553 34.0224L28.6266 34.0035L28.6874 33.9617C29.1413 33.6496 29.6916 33.3533 30.1359 33.1323C30.3565 33.0225 30.5479 32.9329 30.6838 32.8708C30.7518 32.8398 30.8057 32.8157 30.8424 32.7995L30.8839 32.7813L30.8942 32.7768L30.8966 32.7758L30.8971 32.7756L30.8971 32.7756L30.897 32.7752L30.6531 31.9655L30.653 31.9655L30.6525 31.9656L30.6506 31.9659L30.6428 31.9673L30.611 31.973L30.4861 31.9951C30.3765 32.0144 30.2154 32.0422 30.0101 32.0767C29.5996 32.1456 29.0128 32.2409 28.309 32.3459C26.9005 32.5561 25.0274 32.8049 23.1619 32.9609C18.5722 33.3431 13.6737 33.4179 11.2437 33.0908L11.2434 33.0907C10.5209 32.994 10.068 32.8803 9.80978 32.7693C9.76351 32.7494 9.72737 32.7312 9.69945 32.7154C9.73833 32.6793 9.79286 32.636 9.86636 32.5866C10.0779 32.4443 10.3866 32.2907 10.7614 32.1347C11.5068 31.8244 12.4397 31.5342 13.1951 31.32C13.5709 31.2134 13.8993 31.1265 14.1336 31.0664C14.2506 31.0363 14.3441 31.013 14.408 30.9972L14.4811 30.9793L14.4996 30.9748L14.5041 30.9737L14.5052 30.9735L14.5054 30.9734L14.4349 30.1345L14.4065 30.5593C14.4349 30.1345 14.4348 30.1345 14.4346 30.1345L14.4342 30.1345L14.4332 30.1344L14.4301 30.1342L14.4202 30.1336L14.3851 30.1319C14.3551 30.1305 14.3119 30.1289 14.2562 30.1277C14.1448 30.1252 13.9833 30.1242 13.7769 30.1297C13.3642 30.1409 12.7719 30.1782 12.0425 30.2826C10.5839 30.4912 8.57444 30.9681 6.35738 32.0403L6.35648 32.0408C6.01767 32.2056 5.74154 32.3796 5.54648 32.5693C5.35278 32.7577 5.19313 33.0089 5.21003 33.3139C5.2268 33.6167 5.41062 33.8431 5.60499 33.9996C5.802 34.1582 6.06261 34.2894 6.35529 34.4016C7.51549 34.8464 9.6078 35.1476 12.0913 35.293C17.08 35.5852 23.8857 35.2598 28.5553 34.0224ZM9.6323 32.792C9.6323 32.792 9.63242 32.7917 9.63272 32.7912L9.6323 32.792ZM19.8279 30.7763L20.5035 30.2889C20.0666 29.3016 19.3981 28.3457 18.7506 27.4199C18.6805 27.3197 18.6106 27.2198 18.5413 27.1203C17.8187 26.0822 17.1498 25.0726 16.7807 24.011C16.4178 22.9673 16.3475 21.8801 16.8284 20.6746C17.3154 19.454 18.3833 18.073 20.3788 16.4888C25.4954 12.4283 26.8309 9.00386 26.796 6.51637C26.7786 5.28162 26.4228 4.312 26.0691 3.64961C25.8924 3.31863 25.7159 3.06362 25.5815 2.8892C25.5143 2.80191 25.4574 2.73457 25.416 2.68774C25.3953 2.66432 25.3785 2.64601 25.3661 2.63287L25.3511 2.61704L25.3462 2.61205L25.3445 2.61028L25.3438 2.60959C25.3435 2.60929 25.3432 2.60901 25.0412 2.90909L25.3432 2.60901L24.247 1.50574L24.6285 3.01351C25.1308 4.99916 24.9371 6.61378 24.3299 8.0051C23.7178 9.40788 22.6729 10.6124 21.4251 11.7489C20.5849 12.5142 19.677 13.2284 18.7608 13.9492C18.3065 14.3066 17.8502 14.6656 17.399 15.0332C16.0565 16.1272 14.7797 17.2835 13.8861 18.6277L13.8857 18.6284C13.2522 19.5853 13.0055 20.5758 13.0848 21.5904C13.1633 22.5955 13.5594 23.597 14.1647 24.5928C15.3694 26.5744 17.4659 28.6311 19.8279 30.7763ZM31.2952 12.7467H31.1801L31.1307 12.7755C31.098 12.7842 31.052 12.7965 30.9938 12.8125C30.8681 12.8472 30.6855 12.8989 30.4565 12.968C29.9986 13.1061 29.3543 13.3138 28.607 13.5929C27.1165 14.1496 25.1981 14.997 23.5302 16.1538C21.8708 17.3047 20.4002 18.803 19.9072 20.6809C19.4061 22.5901 19.9437 24.7725 22.0456 27.2071L22.0459 27.2074C22.5956 27.843 22.8161 28.4394 22.8613 28.9685C22.9068 29.5028 22.7762 30.0024 22.5693 30.4417C22.362 30.882 22.0836 31.2493 21.8533 31.5087C21.7389 31.6375 21.6384 31.7375 21.5676 31.8044C21.5322 31.8377 21.5044 31.8627 21.4863 31.8787L21.4665 31.8958L21.4627 31.899L21.4625 31.8992L21.4625 31.8992C21.4625 31.8992 21.4625 31.8992 21.4641 31.901L21.93 32.6051L21.7337 32.2273C21.93 32.6051 21.9302 32.605 21.9304 32.6049L21.9308 32.6047L21.9322 32.604L21.9366 32.6017L21.9518 32.5936C21.9568 32.591 21.9627 32.5878 21.9693 32.5842C21.9799 32.5785 21.9924 32.5717 22.0068 32.5638C22.0541 32.5378 22.1217 32.4998 22.2061 32.4504C22.3749 32.3517 22.6111 32.2069 22.8851 32.0206C23.4307 31.6495 24.1365 31.1068 24.7557 30.428C25.3724 29.7519 25.9268 28.9151 26.1266 27.9553C26.3302 26.9773 26.1562 25.9139 25.3888 24.8286L25.3887 24.8285C25.2724 24.6641 25.1586 24.5051 25.0481 24.3506C24.5203 23.6129 24.0666 22.9789 23.7626 22.356C23.4061 21.6255 23.284 20.9633 23.5077 20.2388C23.7385 19.4912 24.3564 18.6134 25.6336 17.5111C26.9063 16.4124 28.7964 15.1221 31.5096 13.5402L31.4707 13.4736C31.534 13.3119 31.5935 12.9981 31.2952 12.7467ZM30.5029 39.3365L30.3921 39.3944L30.3302 39.503C30.2958 39.5633 30.2535 39.6185 30.2046 39.6672L29.0808 40.7855L30.6136 40.3806C33.7862 39.5426 35.9217 38.3726 37.2273 37.0877C38.5383 35.7974 39.02 34.3786 38.8288 33.0979C38.4451 30.5278 35.4693 28.8956 32.2945 30.0206L32.2945 30.0206L32.2891 30.0226C31.8844 30.1721 31.5352 30.4422 31.2877 30.7962L30.5151 31.9014L31.7822 31.4402C32.1098 31.3209 32.4464 31.2286 32.7887 31.1641L32.7887 31.1642L32.7977 31.1623C34.1052 30.8866 35.6898 31.7853 35.9355 33.2261C36.176 34.6368 35.1654 36.9018 30.5029 39.3365ZM13.7044 42.1321L13.7047 42.1319C13.7047 42.1319 13.7046 42.132 13.7036 42.1302L13.3742 41.3548C12.3938 41.6304 11.6772 41.9564 11.2296 42.3355C11.0024 42.5279 10.8265 42.7492 10.7339 43.0027C10.6386 43.264 10.6423 43.5313 10.7315 43.7843C10.8999 44.2622 11.3551 44.6484 11.9009 44.9549C12.4641 45.2713 13.2032 45.547 14.0632 45.767C17.4926 46.6446 23.1222 46.706 28.1073 44.5596L29.0598 44.1494L28.0938 43.772C27.1628 43.4083 26.2641 42.966 25.4072 42.4498L25.2676 42.3657L25.1076 42.3963C20.7871 43.2226 18.8107 43.2793 14.8938 42.833C14.0908 42.7414 13.6671 42.6089 13.4631 42.4944C13.4165 42.4682 13.388 42.4467 13.3713 42.4319C13.377 42.4222 13.385 42.41 13.3961 42.3952C13.4271 42.3544 13.4701 42.3105 13.5199 42.2675C13.5687 42.2253 13.6171 42.19 13.6535 42.1651C13.6715 42.1529 13.6858 42.1437 13.6949 42.1379L13.7043 42.1321L13.7044 42.1321ZM38.075 48.2359C38.0694 48.2335 38.0695 48.2334 38.0695 48.2332L38.07 48.232L38.071 48.2296L38.0727 48.2252L38.0757 48.2184L38.0786 48.2121C38.0791 48.2111 38.0764 48.2166 38.069 48.228C38.0541 48.2509 38.0201 48.2983 37.955 48.3663C37.8243 48.5025 37.5687 48.721 37.094 48.988C36.1417 49.5237 34.3324 50.2407 30.9526 50.8836C23.3324 52.3247 13.9183 52.1598 8.35281 51.2373L38.075 48.2359ZM31.0317 51.3019C24.2997 52.5751 16.1876 52.6038 10.5094 51.9633L31.0317 51.3019ZM27.0693 37.2351L26.9106 37.0861L26.6969 37.1275C20.9659 38.2374 17.6618 38.2072 13.4751 37.7696C12.6776 37.6858 12.2961 37.5315 12.133 37.4073C12.0606 37.3523 12.0463 37.3148 12.0428 37.3034C12.0386 37.29 12.0346 37.2642 12.0487 37.2146C12.082 37.098 12.1862 36.9506 12.3224 36.8097C12.3851 36.7449 12.445 36.6911 12.4891 36.6537C12.5109 36.6352 12.5284 36.6211 12.5397 36.6122L12.5519 36.6027L12.5532 36.6017L12.5535 36.6015C12.5535 36.6015 12.5535 36.6015 12.5525 36.6003L12.1644 35.8562C11.0893 36.215 10.3101 36.5939 9.82254 36.9946C9.33476 37.3954 9.04241 37.9128 9.24501 38.4819C9.42055 38.9751 9.92537 39.3377 10.5096 39.6103C11.1192 39.8946 11.9261 40.1317 12.8733 40.3147C16.6565 41.0456 22.9769 40.9698 28.9567 39.2098L30.2155 38.8393L28.979 38.4002C28.2696 38.1483 27.6194 37.7517 27.0693 37.2351ZM31.1832 12.7617C31.1842 12.7614 31.1846 12.7613 31.1838 12.7615L31.1832 12.7617Z" fill="white" stroke="white" stroke-width="0.851482"/>
</svg>