<svg xmlns="http://www.w3.org/2000/svg" width="46" height="50" viewBox="0 0 46 50" fill="none">
  <mask id="path-1-inside-1_1237_543" fill="white">
    <path d="M22.9509 0.822452C19.7715 0.706472 17.3095 2.90317 14.6434 4.28347C11.0173 6.43296 7.28332 8.41588 3.72943 10.6768C1.40489 12.5662 0.33687 15.6064 0.580981 18.5424C0.594515 23.7478 0.554011 28.9545 0.60143 34.1592C0.902445 37.3106 3.08769 39.9851 5.89966 41.3035C10.4138 43.8943 14.9014 46.5333 19.4321 49.0938C22.3122 50.4071 25.7217 49.8548 28.2696 48.0779C32.7704 45.4636 37.2992 42.8954 41.7824 40.2519C44.3613 38.4158 45.5855 35.1862 45.3209 32.0918C45.3073 26.8862 45.3479 21.6797 45.3004 16.475C44.9991 13.3238 42.8143 10.6486 40.002 9.33087C35.4878 6.74059 30.9993 4.10338 26.4689 1.54253C25.3723 1.03317 24.1542 0.825811 22.951 0.822353M20.1162 13.9308H25.7868V36.704H20.1162V13.9308ZM27.2519 18.8876H32.9197V36.704H27.2519V18.8876ZM12.9814 28.1818H18.651V36.704H12.9814V28.1818Z"/>
  </mask>
  <path d="M22.9509 0.822452C19.7715 0.706472 17.3095 2.90317 14.6434 4.28347C11.0173 6.43296 7.28332 8.41588 3.72943 10.6768C1.40489 12.5662 0.33687 15.6064 0.580981 18.5424C0.594515 23.7478 0.554011 28.9545 0.60143 34.1592C0.902445 37.3106 3.08769 39.9851 5.89966 41.3035C10.4138 43.8943 14.9014 46.5333 19.4321 49.0938C22.3122 50.4071 25.7217 49.8548 28.2696 48.0779C32.7704 45.4636 37.2992 42.8954 41.7824 40.2519C44.3613 38.4158 45.5855 35.1862 45.3209 32.0918C45.3073 26.8862 45.3479 21.6797 45.3004 16.475C44.9991 13.3238 42.8143 10.6486 40.002 9.33087C35.4878 6.74059 30.9993 4.10338 26.4689 1.54253C25.3723 1.03317 24.1542 0.825811 22.951 0.822353M20.1162 13.9308H25.7868V36.704H20.1162V13.9308ZM27.2519 18.8876H32.9197V36.704H27.2519V18.8876ZM12.9814 28.1818H18.651V36.704H12.9814V28.1818Z" fill="white"/>
  <path d="M14.6434 4.28347L14.1378 3.307L14.1098 3.32151L14.0827 3.33759L14.6434 4.28347ZM3.72943 10.6768L3.13921 9.74904L3.08539 9.78328L3.03589 9.82352L3.72943 10.6768ZM0.580981 18.5424L1.68056 18.5395L1.68044 18.4953L1.67678 18.4513L0.580981 18.5424ZM0.60143 34.1592L-0.498104 34.1692L-0.497672 34.2166L-0.493168 34.2637L0.60143 34.1592ZM5.89966 41.3035L6.447 40.3498L6.40758 40.3272L6.36643 40.3079L5.89966 41.3035ZM19.4321 49.0938L18.891 50.0511L18.9325 50.0745L18.9759 50.0943L19.4321 49.0938ZM28.2696 48.0779L27.7173 47.1271L27.6779 47.15L27.6406 47.176L28.2696 48.0779ZM41.7824 40.2519L42.3409 41.199L42.3816 41.175L42.4201 41.1476L41.7824 40.2519ZM45.3209 32.0918L44.2213 32.0946L44.2214 32.1401L44.2253 32.1855L45.3209 32.0918ZM45.3004 16.475L46.4 16.465L46.3995 16.4175L46.395 16.3703L45.3004 16.475ZM40.002 9.33087L39.4547 10.2846L39.4942 10.3073L39.5354 10.3266L40.002 9.33087ZM26.4689 1.54253L27.01 0.585297L26.9719 0.563742L26.9321 0.545289L26.4689 1.54253ZM20.1162 13.9308V12.8313H19.0166V13.9308H20.1162ZM25.7868 13.9308H26.8863V12.8313H25.7868V13.9308ZM25.7868 36.704V37.8036H26.8863V36.704H25.7868ZM20.1162 36.704H19.0166V37.8036H20.1162V36.704ZM27.2519 18.8876V17.788H26.1523V18.8876H27.2519ZM32.9197 18.8876H34.0193V17.788H32.9197V18.8876ZM32.9197 36.704V37.8036H34.0193V36.704H32.9197ZM27.2519 36.704H26.1523V37.8036H27.2519V36.704ZM12.9814 28.1818V27.0822H11.8819V28.1818H12.9814ZM18.651 28.1818H19.7506V27.0822H18.651V28.1818ZM18.651 36.704V37.8036H19.7506V36.704H18.651ZM12.9814 36.704H11.8819V37.8036H12.9814V36.704ZM22.991 -0.276397C21.1268 -0.344399 19.5165 0.270731 18.0933 1.01843C17.3843 1.39088 16.6972 1.80997 16.0481 2.20435C15.3881 2.6054 14.7657 2.98194 14.1378 3.307L15.1489 5.25995C15.8541 4.89486 16.5393 4.47919 17.1901 4.08378C17.8518 3.6817 18.4788 3.30006 19.116 2.96529C20.3852 2.29855 21.5956 1.87332 22.9108 1.9213L22.991 -0.276397ZM14.0827 3.33759C10.5257 5.44611 6.70298 7.48184 3.13921 9.74904L4.31965 11.6045C7.86365 9.34991 11.5089 7.4198 15.2041 5.22936L14.0827 3.33759ZM3.03589 9.82352C0.38752 11.9761 -0.784236 15.3932 -0.514818 18.6335L1.67678 18.4513C1.45798 15.8197 2.42226 13.1562 4.42297 11.5301L3.03589 9.82352ZM-0.518595 18.5452C-0.505108 23.7326 -0.545541 28.9626 -0.498104 34.1692L1.70096 34.1492C1.65356 28.9464 1.69414 23.7631 1.68056 18.5395L-0.518595 18.5452ZM-0.493168 34.2637C-0.149366 37.8631 2.32786 40.8433 5.43289 42.2991L6.36643 40.3079C3.84752 39.1269 1.95426 36.7581 1.69603 34.0546L-0.493168 34.2637ZM5.35232 42.2572C9.85048 44.8388 14.3587 47.4896 18.891 50.0511L19.9731 48.1365C15.4441 45.5769 10.9771 42.9498 6.447 40.3498L5.35232 42.2572ZM18.9759 50.0943C22.2644 51.5938 26.0844 50.9424 28.8985 48.9799L27.6406 47.176C25.3591 48.7671 22.36 49.2204 19.8883 48.0933L18.9759 50.0943ZM28.8218 49.0288C33.3072 46.4234 37.856 43.8436 42.3409 41.199L41.2239 39.3047C36.7424 41.9472 32.2337 44.5037 27.7173 47.1271L28.8218 49.0288ZM42.4201 41.1476C45.3656 39.0505 46.7087 35.4153 46.4165 31.9981L44.2253 32.1855C44.4623 34.9571 43.3571 37.781 41.1447 39.3561L42.4201 41.1476ZM46.4204 32.0889C46.407 26.9015 46.4475 21.6716 46.4 16.465L44.2009 16.485C44.2484 21.6878 44.2077 26.871 44.2213 32.0946L46.4204 32.0889ZM46.395 16.3703C46.0509 12.7714 43.5743 9.79044 40.4686 8.33518L39.5354 10.3266C42.0543 11.5068 43.9473 13.8761 44.2058 16.5797L46.395 16.3703ZM40.5492 8.37715C36.0506 5.79578 31.5421 3.14708 27.01 0.585297L25.9278 2.49977C30.4566 5.05968 34.925 7.6854 39.4547 10.2846L40.5492 8.37715ZM26.9321 0.545289C25.6588 -0.046199 24.2759 -0.273424 22.9541 -0.277223L22.9478 1.92193C24.0326 1.92505 25.0859 2.11254 26.0057 2.53978L26.9321 0.545289ZM20.1162 15.0304H25.7868V12.8313H20.1162V15.0304ZM24.6872 13.9308V36.704H26.8863V13.9308H24.6872ZM25.7868 35.6044H20.1162V37.8036H25.7868V35.6044ZM21.2158 36.704V13.9308H19.0166V36.704H21.2158ZM27.2519 19.9871H32.9197V17.788H27.2519V19.9871ZM31.8201 18.8876V36.704H34.0193V18.8876H31.8201ZM32.9197 35.6044H27.2519V37.8036H32.9197V35.6044ZM28.3515 36.704V18.8876H26.1523V36.704H28.3515ZM12.9814 29.2813H18.651V27.0822H12.9814V29.2813ZM17.5514 28.1818V36.704H19.7506V28.1818H17.5514ZM18.651 35.6044H12.9814V37.8036H18.651V35.6044ZM14.081 36.704V28.1818H11.8819V36.704H14.081Z" fill="white" mask="url(#path-1-inside-1_1237_543)"/>
</svg>