<svg xmlns="http://www.w3.org/2000/svg" width="42" height="42" viewBox="0 0 42 42" fill="none">
  <path d="M22.9037 30.7499C22.7301 31.3062 22.6374 31.8859 22.6296 32.4712L22.6295 32.4712V32.4778V33.4669H4.61634H4.61585C4.19391 33.4674 3.77605 33.3846 3.38616 33.2233C2.99627 33.062 2.64201 32.8255 2.34366 32.5271C2.04531 32.2288 1.80873 31.8745 1.64746 31.4846C1.48619 31.0947 1.4034 30.6769 1.40382 30.2549V30.2544L1.40382 4.34078L1.40382 4.34053C1.40361 3.91874 1.48656 3.50104 1.64792 3.11133C1.80929 2.72163 2.0459 2.36756 2.34423 2.06938C2.64256 1.7712 2.99674 1.53477 3.38653 1.3736C3.77632 1.21243 4.19405 1.12969 4.61585 1.13011H4.61634L34.2306 1.13011L34.2309 1.13011C34.6525 1.1299 35.0701 1.21279 35.4597 1.37406C35.8493 1.53532 36.2033 1.77179 36.5014 2.06995L36.8505 1.72088L36.5014 2.06995C36.7996 2.36811 37.0361 2.7221 37.1973 3.11171C37.3586 3.50131 37.4415 3.91887 37.4413 4.34053V4.34078V19.2288C36.4166 18.8564 35.3338 18.6604 34.2394 18.6533H34.2362H19.4374H18.9437V19.147V22.8495V23.3431H19.4374H25.9913C25.5157 24.185 25.1874 25.1033 25.0219 26.0583L12.0157 26.0601L11.5221 26.0602V26.5538V30.2563V30.7499H12.0157H22.9037ZM34.2306 15.9382H34.7243V15.4445V11.742V11.2484H34.2306H19.4318H18.9381V11.742V15.4445V15.9382H19.4318H34.2306ZM12.0157 3.84341H11.5221V4.33707V8.03955V8.53322H12.0157H34.2306H34.7243V8.03955V4.33707V3.84341H34.2306H12.0157ZM8.2929 30.7481H8.78657V30.2544V26.552V26.0583H8.2929H4.59042H4.09676V26.552V30.2544V30.7481H4.59042H8.2929ZM8.2929 8.53322H8.78657V8.03955V4.33707V3.84341H8.2929H4.59042H4.09676V4.33707V8.03955V8.53322H4.59042H8.2929ZM12.0046 11.2484H11.511V11.742V15.4445V15.9382H12.0046H15.7071H16.2008V15.4445V11.742V11.2484H15.7071H12.0046ZM11.5165 22.8495V23.3431H12.0102H15.7127H16.2063V22.8495V19.147V18.6533H15.7127H12.0102H11.5165V19.147V22.8495ZM38.9204 30.2563V30.7101L39.3726 30.7482C39.8538 30.7887 40.3022 31.008 40.6297 31.3628C40.957 31.7173 41.1397 32.1815 41.1419 32.664C41.1419 32.6643 41.1419 32.6646 41.1419 32.6649L41.1419 39.1203C41.0972 39.594 40.8791 40.0348 40.5291 40.3579C40.1745 40.6851 39.7103 40.8679 39.2278 40.8701C39.2275 40.8701 39.2272 40.8701 39.2269 40.8701L29.0691 40.8701C28.5954 40.8253 28.1546 40.6072 27.8315 40.2572C27.5042 39.9027 27.3215 39.4385 27.3193 38.956V32.4954C27.3536 32.0441 27.5484 31.6197 27.8687 31.2994C28.1928 30.9753 28.6233 30.7797 29.0805 30.7488L29.5408 30.7177V30.2563V27.5081C29.6772 26.3655 30.2262 25.3117 31.0849 24.545C31.9505 23.7721 33.0703 23.345 34.2306 23.345C35.391 23.345 36.5107 23.7721 37.3763 24.545C38.2351 25.3117 38.784 26.3655 38.9204 27.508V30.2563ZM37.0075 30.7499H37.5011V30.2563V27.4794V27.467L37.5005 27.4546C37.4799 27.0453 37.3767 26.6443 37.1972 26.2759C37.0176 25.9075 36.7654 25.5792 36.4557 25.3108C36.1459 25.0424 35.7851 24.8394 35.3949 24.714C35.0192 24.5933 34.6238 24.5469 34.2306 24.5774C33.8375 24.5469 33.442 24.5933 33.0663 24.714C32.6761 24.8394 32.3153 25.0424 32.0056 25.3108C31.6959 25.5792 31.4436 25.9075 31.2641 26.2759C31.0845 26.6443 30.9813 27.0453 30.9607 27.4546L30.9601 27.467V27.4794V30.2563V30.7499H31.4538H37.0075Z" fill="white" stroke="white" stroke-width="0.987328"/>
</svg>