<svg width="61" height="64" viewBox="0 0 61 64" fill="none" xmlns="http://www.w3.org/2000/svg">
<path d="M15.4732 7.68886C13.5446 7.91388 11.95 8.49251 10.4631 9.52119C10.4092 9.56406 9.98899 9.90695 9.54723 10.282C5.45291 13.7324 4.70947 19.9795 7.87718 24.2871C10.5924 27.9624 14.9668 29.4948 19.5676 28.3589C21.2268 27.9517 22.8322 27.0302 24.2114 25.6801C25.5474 24.3728 26.2585 23.2584 26.8296 21.5868C28.3919 17.0006 26.7218 12.1358 22.6383 9.39261C21.1622 8.40679 19.7184 7.90316 17.682 7.67814C16.6046 7.56027 16.6153 7.56027 15.4732 7.68886ZM14.0079 14.3646C14.7729 14.7396 15.484 15.5111 15.7965 16.3148C16.0227 16.9148 16.249 18.2436 16.152 18.415C16.1305 18.4686 14.7729 18.5007 13.1459 18.5007H10.1937V18.8222C10.1937 19.2294 10.4954 20.108 10.7217 20.3652C10.8186 20.4724 11.0988 20.676 11.3574 20.826C11.7345 21.051 11.9607 21.0939 12.6072 21.1046C13.5769 21.1046 14.2126 20.8045 14.5358 20.183C14.7406 19.7973 14.7513 19.7866 15.3763 19.7866C16.0658 19.7866 16.0874 19.8187 15.8611 20.3759C15.4409 21.3725 14.5358 22.0368 13.286 22.2618C11.95 22.5083 10.6678 22.0904 9.78427 21.126C9.12703 20.4081 8.88999 19.733 8.81456 18.3614C8.77147 17.4077 8.79302 17.2363 9.06238 16.5077C9.65498 14.8896 11.0664 13.9467 12.758 14.0431C13.1998 14.0753 13.62 14.1824 14.0079 14.3646ZM18.7056 14.3967C18.8564 14.611 19.0288 14.8575 19.0827 14.9539C19.4706 15.6076 20.4834 16.8827 20.5373 16.8184C20.5804 16.7648 21.0652 16.1219 21.6039 15.3611L22.5952 14.0002H23.3494C23.8343 14.0002 24.0929 14.0431 24.0929 14.1181C24.0929 14.1931 23.5218 14.9968 22.8215 15.9183C22.1211 16.8398 21.507 17.6542 21.4639 17.7292C21.3669 17.8899 21.6039 18.265 23.3279 20.5902C23.9851 21.4689 24.5238 22.2297 24.5238 22.2726C24.5238 22.3261 24.1467 22.3583 23.6834 22.3583H22.843L22.2289 21.4689C21.8841 20.9867 21.3454 20.2152 21.0329 19.7651L20.4618 18.9401L19.2874 20.6438L18.113 22.3583H17.3372C16.9062 22.3583 16.5507 22.3261 16.5507 22.2726C16.5507 22.1654 16.8631 21.7046 17.8436 20.3759C18.3177 19.7223 18.9103 18.9186 19.1473 18.5757L19.5783 17.9542L19.1689 17.397C18.9534 17.0863 18.6302 16.6684 18.4686 16.4648C17.6174 15.3825 16.7662 14.2038 16.7662 14.1074C16.7662 14.0431 17.111 14.0002 17.6066 14.0002H18.4362L18.7056 14.3967Z" fill="white"/>
<path d="M11.4346 15.4689C10.7558 15.8225 10.3787 16.3261 10.2386 17.0655L10.174 17.4298H14.7424L14.6777 17.0226C14.5807 16.4869 14.0851 15.8225 13.5787 15.5332C13.0615 15.2332 11.941 15.201 11.4346 15.4689Z" fill="white"/>
<path d="M50.6038 19.8745C50.4615 19.7122 50.3117 19.5494 50.1541 19.3862C50.264 19.2699 50.3707 19.154 50.4741 19.0385C52.4193 16.8526 53.2411 14.6594 52.4799 13.3423C51.7503 12.0785 49.5796 11.7017 46.8611 12.23C46.5937 12.2825 46.3274 12.3415 46.0624 12.4069C46.0115 12.2324 45.9578 12.0587 45.9012 11.8859C44.9789 9.10748 43.4893 7.30085 41.9671 7.30206C40.5078 7.30206 39.097 8.99479 38.1965 11.6132C38.1077 11.8717 38.0256 12.1319 37.9505 12.3936C37.7735 12.35 37.5958 12.3096 37.4172 12.2724C34.5496 11.6847 32.2408 12.0725 31.4809 13.392C30.7524 14.6558 31.5136 16.7242 33.3328 18.8107C33.5138 19.0167 33.6996 19.2186 33.8903 19.4165C33.6649 19.6467 33.4528 19.8782 33.254 20.1084C31.4784 22.1659 30.7609 24.1991 31.4881 25.458C32.2396 26.7594 34.5157 27.1847 37.2875 26.6394C37.5122 26.595 37.7356 26.5449 37.9578 26.4892C38.0386 26.7727 38.1279 27.0542 38.2256 27.3337C39.1225 29.8989 40.5248 31.5358 41.9792 31.5358C43.4821 31.5358 44.9874 29.7753 45.9 27.1023C45.9727 26.8914 46.0394 26.6721 46.1048 26.4467C46.3917 26.5178 46.6805 26.5808 46.9714 26.6358C49.6414 27.141 51.7612 26.7448 52.4872 25.4847C53.2374 24.1821 52.463 21.9986 50.6038 19.8745ZM32.3777 13.9082C32.8456 13.0964 34.7326 12.7789 37.2088 13.2878C37.3671 13.3201 37.5283 13.3565 37.6923 13.3969C37.4503 14.466 37.2794 15.55 37.1809 16.6418C36.2879 17.2695 35.4366 17.9543 34.632 18.6919C34.4551 18.5086 34.2826 18.3208 34.1145 18.1285C32.5547 16.3425 31.939 14.6703 32.3777 13.9082ZM37.0888 20.8487C36.4706 20.3798 35.8949 19.9 35.3726 19.4177C35.8937 18.9379 36.4694 18.4605 37.0876 17.9928C37.0649 18.4686 37.054 18.9448 37.0548 19.4214C37.0548 19.898 37.0661 20.3738 37.0888 20.8487ZM37.0888 25.6228C36.0382 25.8567 34.9536 25.8953 33.8891 25.7367C33.5973 25.7139 33.3132 25.6315 33.0545 25.4945C32.7958 25.3576 32.5679 25.1691 32.385 24.9406C31.9426 24.1773 32.5195 22.5439 34.0382 20.7845C34.2289 20.564 34.426 20.3491 34.6296 20.1399C35.4345 20.8821 36.2876 21.5702 37.1833 22.1998C37.2828 23.3053 37.4553 24.4031 37.6996 25.4859C37.4976 25.5368 37.2936 25.5828 37.0876 25.624L37.0888 25.6228ZM45.694 15.882C45.2875 15.626 44.8763 15.3784 44.4601 15.1393C44.0497 14.9034 43.6348 14.676 43.2154 14.4571C43.9341 14.1554 44.6407 13.8973 45.3231 13.6877C45.4835 14.4124 45.6073 15.1448 45.694 15.882ZM39.177 11.9489C39.9479 9.70726 41.0896 8.33805 41.9695 8.33805C42.9064 8.33684 44.1232 9.81389 44.9195 12.2118C44.9712 12.3685 45.0197 12.5261 45.0649 12.6844C44.0196 13.0083 42.9969 13.4009 42.0034 13.8597C41.0132 13.3953 39.9928 12.9981 38.9492 12.6711C39.0195 12.4287 39.0954 12.188 39.177 11.9489ZM38.6922 13.6743C39.4038 13.8982 40.1036 14.1579 40.789 14.4522C39.939 14.8901 39.1116 15.3671 38.3068 15.8832C38.4038 15.1102 38.5335 14.3698 38.6922 13.6743ZM38.308 22.9559C38.7096 23.2136 39.1172 23.4611 39.5309 23.6986C39.9527 23.941 40.3797 24.1736 40.812 24.3966C40.1217 24.7011 39.4162 24.9701 38.6983 25.2023C38.5315 24.4608 38.4013 23.7114 38.308 22.9571V22.9559ZM44.9207 26.7678C44.5982 27.7942 44.0896 28.7524 43.4202 29.5947C43.255 29.8362 43.0419 30.0412 42.7943 30.1971C42.5466 30.353 42.2696 30.4564 41.9804 30.5011C41.0968 30.5011 39.9709 29.1864 39.2049 26.992C39.1144 26.7327 39.0312 26.471 38.9552 26.2068C40.0039 25.8687 41.0283 25.4598 42.0216 24.983C43.0235 25.4456 44.0547 25.8418 45.1086 26.1693C45.0504 26.3704 44.9878 26.5699 44.9207 26.7678ZM45.3594 25.1636C44.6698 24.9503 43.9535 24.6874 43.2239 24.3808C43.6352 24.1651 44.0493 23.9369 44.4662 23.6962C44.8944 23.449 45.3114 23.1958 45.717 22.9365C45.636 23.6845 45.5166 24.4278 45.3594 25.1636ZM45.9012 19.4165C45.9012 20.1524 45.8782 20.8875 45.8321 21.6218C45.2346 22.0265 44.6044 22.4215 43.9487 22.7996C43.2942 23.1764 42.6482 23.5229 42.0131 23.8368C41.3449 23.5169 40.6896 23.172 40.0473 22.802C39.4089 22.4344 38.7852 22.0431 38.1759 21.6279C38.1194 20.8928 38.0911 20.1569 38.0911 19.4202C38.0911 18.6843 38.1186 17.9488 38.1735 17.2137C39.3919 16.3821 40.6713 15.6437 42.001 15.0048C42.6603 15.3255 43.3079 15.6692 43.9438 16.0359C44.5821 16.4027 45.2083 16.79 45.8224 17.1979C45.8749 17.9362 45.9012 18.6758 45.9012 19.4165ZM47.0599 13.2454C49.3893 12.7934 51.1443 13.0976 51.5843 13.8597C52.0533 14.6716 51.3819 16.4624 49.7008 18.3502C49.6079 18.4544 49.5117 18.5591 49.4124 18.6641C48.5936 17.9241 47.7254 17.2408 46.8138 16.6187C46.722 15.5391 46.5581 14.4667 46.323 13.409C46.5735 13.3476 46.8191 13.2931 47.0599 13.2454ZM46.9023 17.9528C47.5175 18.4017 48.1089 18.8821 48.6743 19.3923C48.1115 19.9106 47.5221 20.3992 46.9084 20.856C46.927 20.3762 46.9363 19.8964 46.9363 19.4165C46.9363 18.9286 46.9249 18.4407 46.9023 17.9528ZM51.5915 24.9673C51.1504 25.7319 49.4487 26.0505 47.1641 25.6192C46.9023 25.5699 46.6341 25.5109 46.3593 25.4423C46.5887 24.3708 46.7454 23.2851 46.8284 22.1925C47.7384 21.56 48.6038 20.8657 49.4184 20.1145C49.5614 20.2623 49.6972 20.4093 49.8257 20.5555C50.5541 21.3474 51.1305 22.2667 51.5261 23.2673C51.6527 23.5311 51.7238 23.8181 51.7351 24.1105C51.7463 24.4029 51.6975 24.6945 51.5915 24.9673ZM40.9029 17.5263C40.5322 17.7403 40.2333 18.0594 40.0439 18.4433C39.8546 18.8271 39.7834 19.2585 39.8392 19.6828C39.8951 20.1072 40.0756 20.5054 40.3578 20.8272C40.6401 21.149 41.0114 21.3799 41.4249 21.4907C41.8384 21.6015 42.2755 21.5872 42.6809 21.4497C43.0863 21.3122 43.4418 21.0575 43.7025 20.718C43.9631 20.3785 44.1172 19.9694 44.1453 19.5423C44.1734 19.1152 44.0742 18.6894 43.8602 18.3187C43.7181 18.0725 43.5289 17.8568 43.3033 17.6837C43.0778 17.5106 42.8204 17.3837 42.5458 17.3101C42.2711 17.2365 41.9847 17.2177 41.7028 17.2548C41.4209 17.2919 41.1491 17.3842 40.9029 17.5263Z" fill="white"/>
<path d="M40.098 34.6057C40.6879 34.2828 41.4563 34.2814 42.0457 34.6057C45.0109 36.2076 47.9771 37.807 50.9419 39.4099C51.4995 39.7102 51.8725 40.3035 51.8668 40.9178V50.5555C51.871 51.1953 51.4611 51.8028 50.8728 52.0963C47.9173 53.6894 44.9633 55.2844 42.0083 56.8775C41.4062 57.2066 40.6224 57.1813 40.0391 56.8251C39.1531 56.334 38.2655 55.8454 37.3793 55.3548C37.1983 55.2516 36.9941 55.1694 36.8663 55.0016C36.9793 54.8559 37.1814 54.8378 37.3456 54.7742C37.7155 54.6617 38.0552 54.4812 38.395 54.3061C38.4809 54.2499 38.5858 54.2714 38.6681 54.3217C39.4258 54.7371 40.1768 55.1645 40.937 55.5759C41.0992 55.6654 41.2634 55.5465 41.4021 55.4727C44.3023 53.9055 47.2061 52.3443 50.1059 50.7766C50.2133 50.7272 50.2727 50.6182 50.264 50.5056C50.266 47.3263 50.2645 44.1465 50.265 40.9672C50.2773 40.8396 50.2 40.7222 50.0793 40.6699C47.134 39.0841 44.1903 37.4959 41.2456 35.9097C41.1945 35.8762 41.1341 35.8582 41.0722 35.8581C41.0103 35.858 40.9498 35.8758 40.8987 35.9092C37.9539 37.4959 35.0107 39.0856 32.066 40.6713C31.9456 40.7236 31.8649 40.8391 31.8792 40.9672C31.8797 44.1465 31.8792 47.3263 31.8792 50.5061C31.8741 50.561 31.8867 50.6161 31.9154 50.6639C31.944 50.7118 31.9873 50.7501 32.0394 50.7737C32.8252 51.1997 33.612 51.6228 34.3983 52.0473C34.8413 52.2753 35.3852 52.4108 35.8733 52.2361C36.304 52.0884 36.6059 51.6682 36.5977 51.231C36.6017 48.0703 36.5956 44.9091 36.6007 41.7488C36.59 41.6085 36.7292 41.4926 36.8719 41.5058C37.2494 41.5034 37.6275 41.5009 38.0051 41.5068C38.1627 41.5034 38.2712 41.6544 38.2517 41.7958C38.2501 44.9765 38.2557 48.1574 38.2491 51.3381C38.2501 52.1858 37.8859 53.1082 37.0657 53.523C36.0554 54.0234 34.8066 53.9172 33.8084 53.4374C32.9443 53.0251 32.1197 52.5384 31.2709 52.0967C30.6811 51.8048 30.2733 51.1949 30.2774 50.5556V40.9178C30.2712 40.2908 30.6591 39.6867 31.2341 39.3908C34.189 37.7964 37.1435 36.2008 40.098 34.6057Z" fill="white"/>
<path d="M42.5256 41.9703C43.609 41.9052 44.7688 41.9318 45.7437 42.4302C46.4985 42.8122 46.917 43.6138 46.9303 44.397C46.9092 44.5026 46.791 44.5609 46.683 44.5537C46.3687 44.5533 46.0543 44.5577 45.7399 44.5517C45.6066 44.5565 45.5291 44.4416 45.5124 44.3315C45.4221 43.9568 45.2032 43.5857 44.8256 43.405C44.2459 43.1339 43.5737 43.1475 42.9415 43.1532C42.48 43.1761 41.9838 43.2134 41.5928 43.4668C41.2927 43.6588 41.2015 44.0464 41.3086 44.3585C41.4096 44.5826 41.6866 44.6549 41.9133 44.7216C43.2189 45.0405 44.6024 45.0087 45.8831 45.4284C46.4133 45.5995 46.932 45.9321 47.1135 46.4506C47.3509 47.1455 47.2468 47.9761 46.7175 48.5339C46.2882 48.993 45.6629 49.2429 45.0393 49.3786C44.2098 49.5513 43.3488 49.5557 42.5063 49.479C41.7141 49.3947 40.8897 49.2003 40.2782 48.6962C39.7552 48.2721 39.4998 47.6113 39.5252 46.9736C39.5312 46.8659 39.646 46.7908 39.7565 46.7996C40.073 46.7973 40.3896 46.7965 40.7061 46.8C40.8325 46.7916 40.9263 46.8936 40.9328 47.0049C40.9912 47.362 41.1348 47.7367 41.4682 47.9483C42.1115 48.336 42.9187 48.3094 43.6554 48.3203C44.2657 48.295 44.9507 48.2873 45.4488 47.9106C45.7115 47.6958 45.7894 47.3363 45.7184 47.027C45.6414 46.7659 45.349 46.6443 45.0978 46.5647C43.809 46.1839 42.41 46.3221 41.1336 45.8915C40.6154 45.7205 40.1143 45.3971 39.9152 44.8999C39.6374 44.1962 39.7647 43.3259 40.3495 42.7868C40.9198 42.2507 41.743 42.0443 42.5256 41.9703Z" fill="white"/>
<path d="M17.569 35.109C16.4952 33.9969 15.5525 32.877 15.3697 32.6291L15.3339 32.6313C15.1823 32.8874 14.3855 34.1232 13.4569 35.3552C5.54209 46.64 15.9325 53.3115 15.9325 53.3115L16.0195 53.3652C16.16 54.4743 16.4508 56.0803 16.4508 56.0803L17.1898 56.0361C17.1898 56.0361 17.2692 54.4197 17.271 53.2902L17.3501 53.2149C17.3501 53.2149 26.8176 45.3663 17.569 35.109ZM16.6017 53.1068C16.3824 52.9505 16.1791 52.7736 15.9948 52.5785L15.8412 40.8238L17.1032 52.5121C16.955 52.7251 16.7871 52.9242 16.6017 53.1068Z" fill="white"/>
</svg>
