<svg xmlns="http://www.w3.org/2000/svg" width="26" height="29" viewBox="0 0 26 29" fill="none">
  <g clip-path="url(#clip0_1237_498)">
    <path d="M12.2031 7.0471C7.02203 7.0471 2.59735 10.2698 0.804688 14.8188C2.59735 19.3678 7.02203 22.5904 12.2031 22.5904C17.3843 22.5904 21.8089 19.3678 23.6016 14.8188C21.8089 10.2698 17.3843 7.0471 12.2031 7.0471ZM12.2031 19.9999C9.34317 19.9999 7.02203 17.6787 7.02203 14.8188C7.02203 11.9588 9.34317 9.63765 12.2031 9.63765C15.0631 9.63765 17.3843 11.9588 17.3843 14.8188C17.3843 17.6787 15.0631 19.9999 12.2031 19.9999ZM12.2031 11.7101C10.483 11.7101 9.09448 13.0986 9.09448 14.8188C9.09448 16.5389 10.483 17.9274 12.2031 17.9274C13.9233 17.9274 15.3118 16.5389 15.3118 14.8188C15.3118 13.0986 13.9233 11.7101 12.2031 11.7101Z" fill="#8826E8"/>
  </g>
  <defs>
    <clipPath id="clip0_1237_498">
      <rect width="29.4506" height="29.4506" fill="white" transform="translate(-0.410156 0.0953445)"/>
    </clipPath>
  </defs>
</svg>